<?xml version="1.0" encoding="UTF-8" standalone="no"?>
<svg
   height="152.379mm"
   width="130.288mm"
   viewBox="0 0 461.65048 539.92704"
   version="1.1"
   id="svg42"
   sodipodi:docname="golang_2.svg"
   inkscape:version="1.3.2 (091e20e, 2023-11-25, custom)"
   xmlns:inkscape="http://www.inkscape.org/namespaces/inkscape"
   xmlns:sodipodi="http://sodipodi.sourceforge.net/DTD/sodipodi-0.dtd"
   xmlns="http://www.w3.org/2000/svg"
   xmlns:svg="http://www.w3.org/2000/svg">
  <defs
     id="defs42" />
  <sodipodi:namedview
     id="namedview42"
     pagecolor="#ffffff"
     bordercolor="#000000"
     borderopacity="0.25"
     inkscape:showpageshadow="2"
     inkscape:pageopacity="0.0"
     inkscape:pagecheckerboard="0"
     inkscape:deskcolor="#d1d1d1"
     inkscape:document-units="mm"
     inkscape:zoom="1.4533253"
     inkscape:cx="246.33164"
     inkscape:cy="287.96031"
     inkscape:window-width="1920"
     inkscape:window-height="1051"
     inkscape:window-x="-9"
     inkscape:window-y="-9"
     inkscape:window-maximized="1"
     inkscape:current-layer="svg42" />
  <g
     transform="matrix(-1,0,0,1,623.41236,-248.822)"
     id="g42">
    <g
       transform="matrix(-1.25,0,0,-1.25,232.219,530.113)"
       id="g1">
      <path
         d="m 0,0 c 0,0 11.507,-0.41 21.489,3.783 9.983,4.192 23.651,8.014 21.389,22.578 -1.391,8.955 -22.921,4.354 -22.921,4.354 0,0 -15.763,-5.819 -26.229,-5.227"
         fill="#f4d6b9"
         id="path1" />
    </g>
    <g
       transform="matrix(-1.25,0,0,-1.25,232.219,531.988)"
       id="g2">
      <path
         d="m 0,0 c 11.194,-0.319 21.678,3.307 31.696,7.961 4.585,2.129 8.774,5.082 11.26,9.573 1.95,3.521 2.846,10.012 0.207,13.404 -4.627,5.948 -15.523,4.092 -21.917,3.038 -9.364,-1.545 -17.688,-5.812 -27.518,-5.488 -1.936,0.064 -1.93,-2.936 0,-3 14.632,-0.483 28.062,8.833 42.766,5.917 6.05,-1.2 6.041,-7.563 3.871,-12.357 C 38.331,14.552 33.372,12.033 29.133,10.063 19.953,5.799 10.229,2.708 0,3 -1.936,3.056 -1.931,0.055 0,0"
         fill="#1d1d1d"
         id="path2" />
    </g>
    <g
       transform="matrix(-1.25,0,0,-1.25,362.313,286.957)"
       id="g3">
      <path
         d="m 0,0 c 0,0 0.25,26.25 14.25,26 14,-0.25 8.25,-30.5 8.25,-30.5"
         fill="#b7d9d5"
         id="path3" />
    </g>
    <g
       transform="matrix(-1.25,0,0,-1.25,360.438,286.957)"
       id="g4">
      <path
         d="M 0,0 C 0.109,8.048 2.706,27.261 14.663,24.198 23.697,21.883 20.776,2.439 19.554,-4.101 19.2,-5.992 22.091,-6.799 22.446,-4.899 24.132,4.118 26.798,24.186 14.735,27.276 0.778,30.852 -2.873,9.36 -3,0 -3.026,-1.936 -0.026,-1.933 0,0"
         fill="#1d1d1d"
         id="path4" />
    </g>
    <g
       transform="matrix(-1.25,0,0,-1.25,354.566,741.752)"
       id="g5">
      <path
         d="M 0,0 C 0,0 19.75,-34.123 30.371,-27.438 40.993,-20.752 16.677,8.043 16.677,8.043"
         fill="#f4d6b9"
         id="path5" />
    </g>
    <g
       transform="matrix(-1.25,0,0,-1.25,356.185,742.698)"
       id="g6">
      <path
         d="m 0,0 c 3.529,-6.072 7.606,-11.876 12.067,-17.296 4.323,-5.251 12.047,-14.278 19.818,-10.98 7.744,3.287 2.416,14.752 -0.111,19.614 C 28.34,-2.055 23.823,4.165 19.032,9.86 17.785,11.343 15.675,9.209 16.911,7.739 20.755,3.17 40.995,-22.507 29.609,-25.94 22.943,-27.95 14.604,-15.867 11.366,-11.611 8.187,-7.433 5.229,-3.027 2.59,1.514 1.619,3.186 -0.975,1.676 0,0"
         fill="#1d1d1d"
         id="path6" />
    </g>
    <g
       transform="matrix(-1.25,0,0,-1.25,568.563,661.019)"
       id="g7">
      <path
         d="m 0,0 c -13.25,1.5 -13.25,3.25 -20,1.5 -6.75,-1.75 -25,-13 -18,-18.25 7,-5.25 7.75,-7 17,-5.5 9.25,1.5 28.5,5.75 28.5,5.75"
         fill="#b7d9d5"
         id="path7" />
    </g>
    <g
       transform="matrix(-1.25,0,0,-1.25,568.563,659.144)"
       id="g8">
      <path
         d="m 0,0 c -8.839,1.056 -16.012,3.633 -24.489,-0.101 -5.379,-2.369 -17.404,-8.626 -16.509,-16.003 0.433,-3.566 5.612,-6.176 8.257,-7.884 3.943,-2.545 8.737,-1.774 13.097,-1.049 9.235,1.532 18.403,3.576 27.543,5.591 1.889,0.416 1.087,3.308 -0.798,2.892 -6.076,-1.339 -12.164,-2.622 -18.265,-3.846 -4.693,-0.943 -9.457,-2.021 -14.24,-2.349 -4.784,-0.329 -8.702,3.098 -12.103,6.053 -4.713,4.094 13.849,13.815 16.56,14.83 C -14.272,0.633 -6.766,-2.191 0,-3 1.918,-3.229 1.896,-0.227 0,0"
         fill="#1d1d1d"
         id="path8" />
    </g>
    <g
       transform="matrix(-1.25,0,0,-1.25,167.181,387.779)"
       id="g9">
      <path
         d="m 0,0 c 0,-23.748 -20.283,-43 -45.303,-43 -25.019,0 -45.302,19.252 -45.302,43 0,23.748 20.283,43 45.302,43 C -20.283,43 0,23.748 0,0"
         fill="#ffffff"
         id="path9" />
    </g>
    <g
       transform="matrix(-1.25,0,0,-1.25,169.056,387.779)"
       id="g10">
      <path
         d="M 0,0 C -0.391,-23.821 -20.633,-41.158 -43.803,-41.5 -66.976,-41.842 -87.223,-23.31 -87.605,0 -87.996,23.821 -66.38,41.167 -43.803,41.5 -20.63,41.842 -0.383,23.31 0,0 0.031,-1.933 3.032,-1.936 3,0 2.647,21.477 -12.946,38.792 -33.596,43.436 -54.46,48.127 -76.709,37.734 -86.293,18.672 c -9.5,-18.894 -2.534,-41.22 13.698,-53.747 16.85,-13.002 42.528,-12.397 58.927,1.036 C -3.303,-25.548 2.779,-13.431 3,0 3.032,1.936 0.031,1.933 0,0"
         fill="#1d1d1d"
         id="path10" />
    </g>
    <g
       transform="matrix(-1.25,0,0,-1.25,167.181,387.175)"
       id="g11">
      <path
         d="m 0,0 c 0,-6.262 -5.223,-11.338 -11.666,-11.338 -6.443,0 -11.666,5.076 -11.666,11.338 0,6.262 5.223,11.338 11.666,11.338 C -5.223,11.338 0,6.262 0,0"
         fill="#1d1d1d"
         id="path11" />
    </g>
    <g
       transform="matrix(-1.25,0,0,-1.25,167.181,387.175)"
       id="g12">
      <path
         d="m 0,0 c 0,-6.262 -5.223,-11.338 -11.666,-11.338 -6.443,0 -11.666,5.076 -11.666,11.338 0,6.262 5.223,11.338 11.666,11.338 C -5.223,11.338 0,6.262 0,0 Z"
         stroke="#2b2b2a"
         stroke-miterlimit="10"
         fill="none"
         id="path12" />
    </g>
    <g
       transform="matrix(-1.25,0,0,-1.25,178.226,386.112)"
       id="g13">
      <path
         d="m 0,0 c 0,-2.039 -1.658,-3.691 -3.705,-3.691 -2.047,0 -3.707,1.652 -3.707,3.691 0,2.038 1.66,3.691 3.707,3.691 C -1.658,3.691 0,2.038 0,0"
         fill="#ffffff"
         id="path13" />
    </g>
    <g
       transform="matrix(-1.25,0,0,-1.25,178.226,386.112)"
       id="g14">
      <path
         d="m 0,0 c 0,-2.039 -1.658,-3.691 -3.705,-3.691 -2.047,0 -3.707,1.652 -3.707,3.691 0,2.038 1.66,3.691 3.707,3.691 C -1.658,3.691 0,2.038 0,0 Z"
         stroke="#2b2b2a"
         stroke-miterlimit="10"
         fill="none"
         id="path14" />
    </g>
    <g
       transform="matrix(-1.25,0,0,-1.25,553.109,395.707)"
       id="g15">
      <path
         d="m 0,0 c 0.909,13.007 22,58 58,74 36,16 50,16 85,19 35,3 88,-28 98,-41 C 251,39 258,27.203 260,9.602 262,-8 262,-16 265,-34 c 3,-18 -1,-87 -12,-113 -7.273,-17.191 -18.481,-59.741 -42.876,-92.958 C 197.625,-256.977 181.665,-271.546 161,-279 c -61,-22 -97.007,-9.358 -106,-9 -25.896,1.032 -31.273,8.471 -61,44 -17.988,21.5 -20.863,47.24 -20.863,65.25 0,21.875 30,73.75 31,103.75 C 5.915,-21.646 -2.47,-35.333 0,0"
         fill="#b7d9d5"
         id="path15" />
    </g>
    <g
       transform="matrix(-1.25,0,0,-1.25,551.234,395.707)"
       id="g16">
      <path
         d="m 0,0 c 0.554,6.49 3.569,12.977 6.315,18.772 4.347,9.174 9.878,17.821 16.185,25.764 7.116,8.963 15.551,16.904 25.208,23.067 11.1,7.083 24.286,11.676 36.812,15.543 10.639,3.286 21.59,5.08 32.645,6.234 11.484,1.199 23.398,2.933 34.946,2.083 22.343,-1.644 44.478,-11.832 63.522,-23.064 7.174,-4.232 14.353,-8.908 20.35,-14.732 7.848,-7.624 14.003,-18.798 17.641,-29.007 4.459,-12.512 4.448,-26.386 5.778,-39.484 0.952,-9.368 2.954,-18.618 3.39,-28.028 0.897,-19.392 -0.691,-39.077 -2.952,-58.323 -1.218,-10.367 -2.841,-20.715 -5.245,-30.877 -1.794,-7.582 -4.707,-14.604 -7.387,-21.884 -17.021,-46.268 -35.461,-101.959 -85.116,-122.476 -23.397,-9.668 -49.801,-14.534 -75.095,-13.972 -7.486,0.167 -14.941,0.954 -22.329,2.155 -4.076,0.663 -8.13,1.596 -12.266,1.777 -7.768,0.342 -15.399,1.591 -22.243,5.449 -7.67,4.323 -13.743,11.33 -19.495,17.845 -9.356,10.598 -19.419,21.365 -26.254,33.797 -6.259,11.383 -9.402,24.306 -10.673,37.155 -0.893,9.024 -0.79,17.486 1.573,26.255 2.684,9.962 6.614,19.601 10.371,29.193 7.584,19.362 17.076,39.714 18.412,60.751 0.933,14.696 0.733,30.022 -2.108,44.525 C -0.1,-20.842 -0.732,-10.881 0,0 c 0.13,1.932 -2.871,1.919 -3,0 -0.492,-7.303 -0.777,-14.658 0.172,-21.937 0.617,-4.728 1.807,-9.356 2.597,-14.055 3.285,-19.54 2.865,-40.991 -2.534,-60.046 -6.08,-21.454 -15.919,-41.611 -22.894,-62.759 -6.072,-18.411 -4.82,-37.458 0.757,-55.951 3.779,-12.534 10.491,-23.313 18.831,-33.29 7.63,-9.126 15.108,-18.504 23.615,-26.841 5.045,-4.946 10.69,-9.116 17.339,-11.608 6.441,-2.415 13.124,-2.39 19.853,-3.115 12.756,-1.373 24.943,-3.901 37.898,-3.828 24.827,0.141 50.791,5.632 73.538,15.515 46.587,20.243 66.409,73.962 82.161,118.271 2.579,7.254 5.728,14.317 7.84,21.725 2.668,9.353 4.26,19.023 5.619,28.639 2.807,19.851 4.316,40.04 4.16,60.093 -0.059,7.746 -0.995,15.096 -2.122,22.745 -1.864,12.654 -2.254,25.478 -4.093,38.128 -2.813,19.36 -13.248,38.319 -28.902,50.225 -16.349,12.435 -35.841,21.731 -55.394,27.823 -9.839,3.066 -20.163,5.099 -30.5,4.952 C 133.159,94.519 121.036,92.983 109.35,91.473 95.016,89.622 81.301,85.721 67.871,80.423 53.24,74.651 40.412,67.59 29.161,56.48 19.649,47.089 11.838,35.887 5.625,24.085 1.77,16.763 -2.286,8.373 -3,0 -3.165,-1.929 -0.163,-1.913 0,0"
         fill="#1d1d1d"
         id="path16" />
    </g>
    <g
       transform="matrix(-1.25,0,0,-1.25,516.063,741.331)"
       id="g17">
      <path
         d="M 0,0 C 0,0 -10.5,-31.75 5.5,-33.5 21.5,-35.25 23,-4.25 23,-4.25"
         fill="#f4d6b9"
         id="path17" />
    </g>
    <g
       transform="matrix(-1.25,0,0,-1.25,517.871,740.833)"
       id="g18">
      <path
         d="m 0,0 c -3.175,-9.697 -8.658,-33.092 6.547,-35.345 14.919,-2.21 18.851,20.091 19.399,30.697 0.1,1.934 -2.9,1.924 -3,0 C 22.472,-13.827 19.385,-34.236 6.483,-32.324 -5.52,-30.546 0.517,-8.054 2.893,-0.797 3.497,1.047 0.599,1.83 0,0"
         fill="#1d1d1d"
         id="path18" />
    </g>
    <g
       transform="matrix(-1.25,0,0,-1.25,520.048,735.906)"
       id="g19">
      <path
         d="m 0,0 c 0,0 2.362,-11.875 7.241,-15.042 0,0 0.88,8.5 1.713,8.833 0.834,0.333 12.167,-8.999 10.5,-10.333 -1.666,-1.334 9.688,5.904 9.677,9.202"
         fill="#b7d9d5"
         id="path19" />
    </g>
    <g
       transform="matrix(-1.25,0,0,-1.25,521.855,736.404)"
       id="g20">
      <path
         d="m 0,0 c 1.155,-5.636 3.161,-12.342 7.931,-15.938 1.009,-0.762 2.152,0.308 2.257,1.294 0.155,1.469 0.348,2.933 0.566,4.393 0.137,0.912 0.317,1.813 0.52,2.711 0.219,0.975 -1.292,0.458 0.16,-0.537 1.249,-0.857 8.099,-7.276 8.254,-7.14 -0.371,-0.324 -0.558,-0.992 -0.386,-1.459 0.003,-0.009 0.006,-0.016 0.009,-0.025 0.351,-0.952 1.283,-1.345 2.204,-0.897 3.521,1.714 9.897,6.1 10.509,10.258 0.279,1.892 -2.612,2.705 -2.893,0.797 -0.485,-3.291 -6.317,-7.095 -9.131,-8.464 0.735,-0.299 1.469,-0.597 2.204,-0.896 0.304,-0.826 -0.598,-1.88 0.137,-0.78 0.209,0.313 0.203,0.699 0.215,1.057 0.034,1.053 -0.898,2.17 -1.528,2.906 -2.35,2.747 -5.161,5.112 -8.08,7.233 -5.482,3.985 -5.395,-5.705 -5.76,-9.157 0.752,0.432 1.504,0.864 2.256,1.295 C 5.419,-10.313 3.864,-3.938 2.893,0.797 2.504,2.691 -0.387,1.888 0,0"
         fill="#1d1d1d"
         id="path20" />
    </g>
    <g
       transform="matrix(-1.25,0,0,-1.25,358.021,720.684)"
       id="g21">
      <path
         d="m 0,0 c -20.667,11.114 -21.145,27.75 -5,48.447 11.865,15.212 25.333,30.333 32.732,74 3.933,23.208 26.819,50.574 48.043,48.953 C 97,169.78 106.981,147.237 99.206,125.646 91.43,104.056 63.099,21.169 42.716,10.475 42.716,10.475 18.798,-10.109 0,0"
         fill="#cfe9ec"
         id="path21" />
    </g>
    <g
       transform="matrix(-1.25,0,0,-1.25,295.931,400.707)"
       id="g22">
      <path
         d="m 0,0 c 0,-28.167 -24.387,-51 -54.469,-51 -30.083,0 -54.47,22.833 -54.47,51 0,28.167 24.387,51 54.47,51 C -24.387,51 0,28.167 0,0"
         fill="#ffffff"
         id="path22" />
    </g>
    <g
       transform="matrix(-1.25,0,0,-1.25,297.806,400.707)"
       id="g23">
      <path
         d="m 0,0 c -0.349,-24.958 -19.498,-44.272 -43.423,-48.705 -24.459,-4.532 -50.443,8.91 -59.525,32.251 -9.017,23.172 2.986,48.186 24.029,59.618 21.985,11.944 50.469,6.53 67.027,-11.906 C -4.2,22.695 -0.159,11.431 0,0 0.027,-1.933 3.027,-1.936 3,0 2.7,21.468 -10.841,39.745 -30.382,48.034 c -19.994,8.482 -43.604,4.573 -60.209,-9.169 -16.349,-13.53 -22.376,-36.242 -15.25,-56.116 7.157,-19.962 26.591,-32.699 47.126,-34.968 C -27.526,-55.666 2.554,-31.96 3,0 3.027,1.936 0.027,1.933 0,0"
         fill="#2b2b2a"
         id="path23" />
    </g>
    <g
       transform="matrix(-1.25,0,0,-1.25,322.106,391.54)"
       id="g24">
      <path
         d="m 0,0 c 0,-8.836 -7.909,-16 -17.666,-16 -9.757,0 -17.666,7.164 -17.666,16 0,8.836 7.909,16 17.666,16 C -7.909,16 0,8.836 0,0"
         fill="#1d1d1d"
         id="path24" />
    </g>
    <g
       transform="matrix(-1.25,0,0,-1.25,322.106,391.54)"
       id="g25">
      <path
         d="m 0,0 c 0,-8.836 -7.909,-16 -17.666,-16 -9.757,0 -17.666,7.164 -17.666,16 0,8.836 7.909,16 17.666,16 C -7.909,16 0,8.836 0,0 Z"
         stroke="#2b2b2a"
         stroke-miterlimit="10"
         fill="none"
         id="path25" />
    </g>
    <g
       transform="matrix(-1.25,0,0,-1.25,344.188,385.73)"
       id="g26">
      <path
         d="m 0,0 c 0,-2.567 -2.09,-4.648 -4.667,-4.648 -2.577,0 -4.667,2.081 -4.667,4.648 0,2.567 2.09,4.648 4.667,4.648 C -2.09,4.648 0,2.567 0,0"
         fill="#ffffff"
         id="path26" />
    </g>
    <g
       transform="matrix(-1.25,0,0,-1.25,344.188,385.73)"
       id="g27">
      <path
         d="m 0,0 c 0,-2.567 -2.09,-4.648 -4.667,-4.648 -2.577,0 -4.667,2.081 -4.667,4.648 0,2.567 2.09,4.648 4.667,4.648 C -2.09,4.648 0,2.567 0,0 Z"
         stroke="#2b2b2a"
         stroke-miterlimit="10"
         fill="none"
         id="path27" />
    </g>
    <g
       transform="matrix(-1.25,0,0,-1.25,497.938,338.207)"
       id="g28">
      <path
         d="m 0,0 -19.667,25 c 0,0 -9.833,15.906 5.5,22.203 C 1.167,53.5 11.667,41.333 12.5,40.167 13.333,39 25.667,20.333 25.667,20.333"
         fill="#b7d9d5"
         id="path28" />
    </g>
    <g
       transform="matrix(-1.25,0,0,-1.25,496.612,336.881)"
       id="g29">
      <path
         d="m 0,0 c -5.035,6.401 -10.07,12.801 -15.105,19.202 -4.102,5.214 -8.241,9.813 -7.045,17.405 1.354,8.596 13.062,10.772 20.067,9.323 4.47,-0.925 9.431,-3.892 12.227,-7.581 C 14.911,32.06 18.96,25.1 23.311,18.516 24.373,16.91 26.972,18.411 25.902,20.03 21.328,26.952 17.246,35 11.663,41.15 c -3.969,4.371 -9.541,7.241 -15.348,8.096 -6.518,0.961 -15.653,-1.349 -19.413,-7.235 -4.272,-6.688 -1.815,-15.16 2.767,-20.984 L -2.121,-2.121 C -0.926,-3.641 1.182,-1.502 0,0"
         fill="#1d1d1d"
         id="path29" />
    </g>
    <g
       transform="matrix(-1.25,0,0,-1.25,501.063,298.415)"
       id="g30">
      <path
         d="m 0,0 c 0,0 -0.104,-9 3.948,-13 4.052,-4 7.719,-6.833 9.719,-5.333 2,1.5 -3.5,12.5 -5.834,13.833 C 5.5,-3.167 4,0.5 0,0"
         fill="#1e1e1f"
         id="path30" />
    </g>
    <g
       transform="matrix(-1.25,0,0,-1.25,502.938,298.415)"
       id="g31">
      <path
         d="m 0,0 c -0.019,-4.495 0.861,-9.5 3.602,-13.153 1.339,-1.785 10.627,-10.975 13.058,-5.723 1.721,3.716 -1.787,9.276 -3.666,12.328 -1.186,1.927 -2.651,2.934 -4.246,4.444 -2.217,2.1 -4.019,3.747 -7.248,3.604 -1.927,-0.085 -1.935,-3.085 0,-3 2.773,0.123 6.465,-3.225 8.16,-5.462 1.95,-2.575 3.423,-5.76 4.253,-8.867 0.843,-3.154 -3.75,0.578 -4.458,1.158 -2.214,1.816 -4.081,3.699 -5.116,6.396 C 3.351,-5.695 2.988,-2.754 3,0 3.008,1.935 0.008,1.934 0,0"
         fill="#2b2b2a"
         id="path31" />
    </g>
    <g
       transform="matrix(-1.25,0,0,-1.25,222.217,397.56)"
       id="g32">
      <path
         d="m 0,0 c 0,-7.281 -8.208,-13.184 -18.333,-13.184 -10.125,0 -18.334,5.903 -18.334,13.184 0,7.281 8.209,13.184 18.334,13.184 C -8.208,13.184 0,7.281 0,0"
         fill="#9d9080"
         id="path32" />
    </g>
    <g
       transform="matrix(-1.25,0,0,-1.25,224.092,397.56)"
       id="g33">
      <path
         d="m 0,0 c -0.933,-15.759 -32.734,-15.759 -33.667,0 -0.49,8.28 10.556,11.492 16.834,11.684 C -9.797,11.899 -0.474,8.007 0,0 0.113,-1.922 3.114,-1.934 3,0 1.837,19.66 -35.504,19.66 -36.667,0 -37.261,-10.034 -24.741,-14.441 -16.833,-14.684 -7.987,-14.954 2.427,-9.692 3,0 3.114,1.934 0.113,1.922 0,0"
         fill="#1d1d1d"
         id="path33" />
    </g>
    <g
       transform="matrix(-1.25,0,0,-1.25,261.966,436.419)"
       id="g34">
      <path
         d="m 0,0 v -24.75 c 0,0 -1.379,-3.441 8.27,-3.934 9.649,-0.492 10.751,0 10.751,0 0,0 4.961,-1.638 6.891,6.393 1.931,8.031 6.894,23.111 6.894,23.111 z"
         fill="#ffffff"
         id="path34" />
    </g>
    <g
       transform="matrix(-1.25,0,0,-1.25,263.842,436.419)"
       id="g35">
      <path
         d="m 0,0 v -21.921 c 0,-2.042 -0.415,-2.675 0.126,-4.343 1.145,-3.528 6.747,-3.704 9.644,-3.92 3.369,-0.251 7.774,-0.89 11.133,0.048 -1.569,-0.438 0.926,-0.181 1.489,-0.111 1.657,0.21 2.929,1.123 4.042,2.319 3.466,3.724 4.035,11.35 5.454,16.08 1.232,4.107 2.526,8.196 3.864,12.269 C 36.054,1.339 35.249,2.344 34.306,2.32 23.37,2.047 12.436,1.773 1.5,1.5 c -1.931,-0.048 -1.936,-3.048 0,-3 10.936,0.273 21.87,0.547 32.806,0.82 -0.483,0.633 -0.964,1.266 -1.447,1.899 -2.505,-7.631 -4.967,-15.311 -6.893,-23.111 -0.574,-2.327 -1.715,-5.378 -4.537,-5.427 -0.456,-0.008 -0.858,0.244 -1.324,0.076 -2.368,-0.858 -6.104,-0.12 -8.517,-0.027 C 9.414,-27.185 3,-27.322 3,-24.7 V -18.042 0 C 3,1.935 0,1.935 0,0"
         fill="#1d1d1d"
         id="path35" />
    </g>
    <g
       transform="matrix(-1.25,0,0,-1.25,246.562,409.654)"
       id="g36">
      <path
         d="m 0,0 c 0,0 -8.404,3.956 -17.07,1.79 -8.668,-2.167 -18.834,-11.166 -18,-19.833 0.832,-8.668 9.666,-14.501 15,-14.668 2.012,-0.062 6.723,-1.832 17.736,-1.832 9.853,0 11.501,0.932 17.334,1.166 7.469,0.301 12.762,6 12.596,16.5 -0.166,10.5 -7.334,15.834 -15,15.334 C 4.93,-2.043 0,0 0,0"
         fill="#f4d6b9"
         id="path36" />
    </g>
    <g
       transform="matrix(-1.25,0,0,-1.25,245.616,408.035)"
       id="g37">
      <path
         d="m 0,0 c -13.778,6.253 -34.188,-0.124 -37.224,-16.461 -1.328,-7.154 4.143,-13.726 9.902,-17.077 4.753,-2.765 12.1,-3.084 17.458,-3.552 8.465,-0.739 16.797,0.351 25.211,1.003 7.191,0.558 11.424,6.52 12.656,13.117 1.359,7.284 -0.732,14.885 -6.863,19.269 -6.209,4.439 -14.638,1.153 -21.498,3.852 -1.802,0.709 -2.577,-2.193 -0.797,-2.893 4.469,-1.759 9.43,-1.695 14.139,-1.566 8.615,0.236 12.414,-7.996 12.339,-15.403 -0.078,-7.66 -4.494,-13.132 -12.194,-13.517 -6.072,-0.304 -11.983,-1.15 -18.099,-1.093 -10.49,0.099 -24.871,1.163 -28.895,12.741 -2.836,8.16 5.477,15.417 11.765,18.847 6.168,3.365 14.273,3.008 20.586,0.142 C 0.233,-3.384 1.76,-0.799 0,0"
         fill="#1d1d1d"
         id="path37" />
    </g>
    <g
       transform="matrix(-1.25,0,0,-1.25,441.036,566.332)"
       id="g38">
      <path
         d="m 0,0 c 0,0 -1.948,-10.389 0,-20.129 1.948,-9.739 7.792,-24.023 19.479,-21.427 11.688,2.598 5.194,19.804 5.194,19.804 0,0 -3.571,13.96 -1.623,23.375"
         fill="#f4d6b9"
         id="path38" />
    </g>
    <g
       transform="matrix(-1.25,0,0,-1.25,442.844,565.834)"
       id="g39">
      <path
         d="m 0,0 c -1.801,-10.016 -1.204,-20.82 2.82,-30.246 3.322,-7.779 11.25,-17.347 20.847,-12.353 6.744,3.51 6.314,11.721 4.731,18.119 -2.049,8.277 -3.977,16.722 -2.455,25.306 0.335,1.891 -2.555,2.7 -2.893,0.797 -1.376,-7.759 -0.29,-15.816 1.447,-23.44 1.011,-4.439 2.531,-8.507 1.592,-13.173 -0.989,-4.914 -6.067,-6.433 -10.478,-5.416 -4.861,1.121 -7.797,6.413 -9.719,10.548 C 1.77,-20.995 1.181,-10.319 2.893,-0.797 3.233,1.094 0.342,1.902 0,0"
         fill="#1d1d1d"
         id="path39" />
    </g>
    <g
       transform="matrix(-1.25,0,0,-1.25,450.313,560.646)"
       id="g40">
      <path
         d="m 0,0 c 5.894,-8.667 20.225,-9.583 20.225,-9.583 0,0 -2.334,3.582 0,7.249 0,0 2.108,-4.416 6.442,-6.416 L 34.333,0"
         fill="#b7d9d5"
         id="path40" />
    </g>
    <g
       transform="matrix(-1.25,0,0,-1.25,451.932,561.592)"
       id="g41">
      <path
         d="m 0,0 c 4.929,-6.648 13.456,-9.75 21.52,-10.326 1.158,-0.083 1.839,1.329 1.295,2.257 -1.046,1.786 -1.012,3.591 0,5.735 h -2.59 c 1.523,-3.02 4.034,-5.364 6.98,-6.954 0.566,-0.306 1.366,-0.28 1.817,0.234 2.556,2.917 5.112,5.833 7.667,8.75 1.27,1.449 -0.843,3.579 -2.121,2.121 -2.555,-2.917 -5.111,-5.833 -7.667,-8.75 0.606,0.079 1.212,0.157 1.818,0.235 -2.531,1.366 -4.6,3.294 -5.904,5.878 -0.484,0.96 -2.118,1 -2.59,0 -1.383,-2.93 -1.704,-5.853 0,-8.763 0.432,0.752 0.863,1.505 1.295,2.257 C 14.626,-6.833 6.819,-4.189 2.591,1.514 1.452,3.049 -1.154,1.556 0,0"
         fill="#1d1d1d"
         id="path41" />
    </g>
  </g>
</svg>
